<?xml version="1.0" standalone="no"?>
<!DOCTYPE svg PUBLIC "-//W3C//DTD SVG 20010904//EN"
 "http://www.w3.org/TR/2001/REC-SVG-20010904/DTD/svg10.dtd">
<svg version="1.0" xmlns="http://www.w3.org/2000/svg"
 width="512.000000pt" height="512.000000pt" viewBox="0 0 512.000000 512.000000"
 preserveAspectRatio="xMidYMid meet">

<g transform="translate(0.000000,512.000000) scale(0.100000,-0.100000)"
fill="#000000" stroke="none">
<path d="M2171 5109 c-128 -25 -257 -125 -311 -241 -37 -79 -50 -146 -50 -259
l0 -88 -487 -3 c-475 -3 -489 -4 -534 -24 -60 -28 -125 -93 -152 -153 -17 -37
-22 -70 -25 -172 -4 -113 -2 -130 17 -167 14 -28 35 -49 61 -62 39 -20 55 -20
1870 -20 1815 0 1831 0 1870 20 26 13 47 34 61 62 19 37 21 54 17 167 -3 102
-8 135 -25 172 -27 60 -92 125 -152 153 -45 20 -59 21 -533 24 l-488 3 0 88
c0 49 -5 112 -10 142 -34 180 -179 325 -359 359 -65 12 -707 12 -770 -1z m759
-309 c60 -31 80 -78 80 -190 l0 -90 -450 0 -450 0 0 90 c0 110 20 159 78 189
35 19 58 20 370 21 314 0 335 -1 372 -20z"/>
<path d="M924 3578 c4 -24 53 -621 111 -1328 58 -707 108 -1300 111 -1317 l5
-33 299 0 c165 0 300 3 300 8 0 4 -43 517 -94 1140 -69 826 -92 1142 -85 1166
5 19 25 48 44 65 75 66 186 47 230 -39 11 -21 41 -338 110 -1175 52 -631 95
-1151 95 -1156 0 -5 78 -9 180 -9 l180 0 0 1150 c0 1134 0 1151 20 1190 23 45
80 80 130 80 50 0 107 -35 130 -80 20 -39 20 -56 20 -1190 l0 -1150 180 0
c102 0 180 4 180 9 0 5 43 525 95 1156 69 837 99 1154 110 1175 30 59 98 90
165 75 43 -10 98 -60 109 -101 7 -24 -16 -340 -85 -1166 -51 -623 -94 -1136
-94 -1140 0 -5 135 -8 300 -8 l299 0 5 33 c3 17 53 610 111 1317 58 707 107
1304 111 1328 l5 42 -1641 0 -1641 0 5 -42z"/>
<path d="M1176 548 c17 -176 27 -226 56 -287 58 -121 175 -216 302 -246 91
-22 1961 -22 2052 0 127 30 244 125 302 246 29 61 39 111 56 287 l5 52 -1389
0 -1389 0 5 -52z"/>
</g>
</svg>
