<?xml version="1.0" standalone="no"?>
<!DOCTYPE svg PUBLIC "-//W3C//DTD SVG 20010904//EN"
 "http://www.w3.org/TR/2001/REC-SVG-20010904/DTD/svg10.dtd">
<svg version="1.0" xmlns="http://www.w3.org/2000/svg"
 width="512.000000pt" height="512.000000pt" viewBox="0 0 512.000000 512.000000"
 preserveAspectRatio="xMidYMid meet">

<g transform="translate(0.000000,512.000000) scale(0.100000,-0.100000)"
fill="#FFF" stroke="none">
<path d="M495 5101 c-47 -22 -89 -64 -104 -104 -15 -40 -15 -4834 0 -4874 15
-40 57 -82 104 -104 39 -18 115 -19 2065 -19 1950 0 2026 1 2065 19 47 22 89
64 104 104 15 40 15 4834 0 4874 -15 40 -57 82 -104 104 -39 18 -115 19 -2065
19 -1950 0 -2026 -1 -2065 -19z m3855 -2541 l0 -2170 -1790 0 -1790 0 0 2170
0 2170 1790 0 1790 0 0 -2170z"/>
<path d="M1320 3510 l0 -360 365 0 365 0 0 360 0 360 -365 0 -365 0 0 -360z
m612 173 c15 -15 28 -32 28 -37 0 -6 -76 -87 -170 -181 l-169 -169 -106 104
c-58 57 -105 111 -105 120 0 17 49 70 65 70 5 0 41 -31 80 -70 l70 -70 130
130 c71 72 134 130 139 130 6 0 23 -12 38 -27z"/>
<path d="M2200 3510 l0 -200 825 0 825 0 -2 198 -3 197 -822 3 -823 2 0 -200z"/>
<path d="M1327 2923 c-4 -3 -7 -165 -7 -360 l0 -353 365 0 365 0 0 360 0 360
-358 0 c-197 0 -362 -3 -365 -7z m605 -180 c15 -15 28 -32 28 -37 0 -6 -76
-87 -170 -181 l-169 -169 -106 104 c-58 57 -105 111 -105 120 0 17 49 70 65
70 5 0 41 -31 80 -70 l70 -70 130 130 c71 72 134 130 139 130 6 0 23 -12 38
-27z"/>
<path d="M2200 2570 l0 -200 825 0 825 0 -2 198 -3 197 -822 3 -823 2 0 -200z"/>
<path d="M1330 1610 l0 -360 360 0 360 0 -2 358 -3 357 -357 3 -358 2 0 -360z"/>
<path d="M2200 1610 l0 -200 825 0 825 0 -2 198 -3 197 -822 3 -823 2 0 -200z"/>
</g>
</svg>
