<svg width="15" height="18" viewBox="0 0 15 18" fill="none" xmlns="http://www.w3.org/2000/svg">
<path d="M10.8116 11.8555C11.295 11.5708 11.8482 11.4088 12.4374 11.4088H12.4394C12.4993 11.4088 12.5273 11.3299 12.4834 11.2861C11.8706 10.6832 11.1706 10.1963 10.4121 9.84525C10.4041 9.84087 10.3962 9.83869 10.3882 9.83431C11.6285 8.84671 12.4354 7.24161 12.4354 5.43066C12.4354 2.43066 10.2224 0 7.49204 0C4.76168 0 2.55064 2.43066 2.55064 5.43066C2.55064 7.24161 3.35756 8.84671 4.5999 9.83431C4.59191 9.83869 4.58392 9.84087 4.57593 9.84525C3.68313 10.2591 2.8822 10.8526 2.19312 11.6102C1.50802 12.36 0.962591 13.2488 0.587265 14.227C0.217985 15.185 0.018688 16.2113 4.99452e-05 17.2511C-0.000483152 17.2745 0.0032559 17.2977 0.0110469 17.3195C0.0188379 17.3412 0.0305232 17.3611 0.0454141 17.3778C0.0603051 17.3945 0.0781005 17.4078 0.0977517 17.4169C0.117403 17.426 0.138513 17.4307 0.159836 17.4307H1.35624C1.44212 17.4307 1.51403 17.354 1.51602 17.2599C1.55597 15.5693 2.17315 13.9861 3.26568 12.7861C4.39418 11.5445 5.89617 10.8613 7.49403 10.8613C8.62652 10.8613 9.71307 11.2051 10.6498 11.8489C10.6739 11.8655 10.7015 11.8748 10.7299 11.876C10.7583 11.8771 10.7865 11.8701 10.8116 11.8555ZM7.49403 9.19708C6.57926 9.19708 5.71841 8.80511 5.06927 8.09343C4.74989 7.74418 4.49669 7.3291 4.32427 6.8721C4.15184 6.4151 4.0636 5.92521 4.06462 5.43066C4.06462 4.42555 4.42214 3.47956 5.06927 2.76788C5.71641 2.0562 6.57726 1.66423 7.49403 1.66423C8.41081 1.66423 9.26966 2.0562 9.91879 2.76788C10.2382 3.11713 10.4914 3.53221 10.6638 3.98921C10.8362 4.44622 10.9245 4.9361 10.9234 5.43066C10.9234 6.43577 10.5659 7.38175 9.91879 8.09343C9.26966 8.80511 8.40881 9.19708 7.49403 9.19708ZM14.8402 14.4088H13.1625V12.5693C13.1625 12.473 13.0906 12.3942 13.0027 12.3942H11.8842C11.7963 12.3942 11.7244 12.473 11.7244 12.5693V14.4088H10.0466C9.95874 14.4088 9.88683 14.4876 9.88683 14.5839V15.8102C9.88683 15.9066 9.95874 15.9854 10.0466 15.9854H11.7244V17.8248C11.7244 17.9212 11.7963 18 11.8842 18H13.0027C13.0906 18 13.1625 17.9212 13.1625 17.8248V15.9854H14.8402C14.9281 15.9854 15 15.9066 15 15.8102V14.5839C15 14.4876 14.9281 14.4088 14.8402 14.4088Z" fill="#A5A5A5"/>
</svg>
